# xmcd
#
# Track frame offsets:
#	150
#	12603
#	27284
#	41000
#	54669
#	66153
#	78812
#	92963
#	107160
#	126022
#	137516
#	149268
#
# Disc length: 2085 seconds
#
# Revision: 1
# Processed by: cddbd v1.5.1PL2 Copyright (c) Steve Scherf et al.
# Submitted via: EasyCDDAExtractor 7.0.6.1
#
DISCID=a408230c
DTITLE=Boowa and Kwala - Chansson 0 à 6 ans
DYEAR=2002
DGENRE=Vocal
TTITLE0=Boowa and Kwala sont là
TTITLE1=Que fait ton papa
TTITLE2=Les ananas forts
TTITLE3=Manger, manger, manger
TTITLE4=J'ai pêché un poisson chat
TTITLE5=Le Tyranosaure qui fait peur
TTITLE6=T'es heureux et tu le sais
TTITLE7=Gambader dans la Jungle
TTITLE8=Vieux Donald
TTITLE9=Guili, guili, guili
TTITLE10=Sucré à mort
TTITLE11=Aurevoir Boowa and Kwala
EXTD=
EXTT0=
EXTT1=
EXTT2=
EXTT3=
EXTT4=
EXTT5=
EXTT6=
EXTT7=
EXTT8=
EXTT9=
EXTT10=
EXTT11=
PLAYORDER=
